#!OML:ASF G:\JayActor3\Patient Classification 1\Patient 1\Session 2\male.ASF
:FULLY-SPECIFIED
:DEGREES
2049
root 46.639 16.151 -5.68304 -34.4817 -80.001 -328.169
lowerback 8.47079 -3.03406 -9.68715
upperback -3.65911 -5.34065 -0.967702
thorax -7.90686 -2.14182 5.16638
lowerneck -1.81761 -0.941304 -2.76337
upperneck -6.56663 -0.972081 9.14394
head -1.72005 -0.655528 3.47748
rclavicle -8.42723e-014 -3.926e-014
rhumerus -19.6318 27.5359 -77.8484
rradius 129.644
rwrist -38.3175
rhand -41.5683 25.9274
rfingers 7.12502
rthumb -14.4792 -3.54741
lclavicle -8.42723e-014 -3.926e-014
lhumerus -45.5028 -73.1034 126.406
lradius 91.1605
lwrist 35.2994
lhand -15.7918 13.0779
lfingers 7.12502
lthumb 10.401 42.8007
rfemur -35.5956 0.572543 13.6209
rtibia 66.5668
rfoot -20.9692 0.731593
rtoes -10.4028
lfemur 23.7271 10.9117 -26.3696
ltibia -2.8625e-014
lfoot -15.1658 16.8656
ltoes -17.2643
2050
root 46.5249 16.1312 -5.69892 -33.7425 -80.1953 -328.984
lowerback 8.28405 -2.9976 -9.43297
upperback -3.65125 -5.2356 -0.936502
thorax -7.82111 -2.10829 5.0317
lowerneck -1.76793 -0.961748 -2.77631
upperneck -6.46312 -1.00335 9.14633
head -1.69297 -0.668396 3.47961
rclavicle 5.48521e-014 3.42904e-014
rhumerus -19.5046 27.4992 -77.7546
rradius 129.733
rwrist -38.3202
rhand -41.6157 25.844
rfingers 7.12502
rthumb -14.5249 -3.62753
lclavicle 5.48521e-014 3.42904e-014
lhumerus -45.7544 -73.1164 126.654
lradius 91.1458
lwrist 35.3994
lhand -15.6826 13.0789
lfingers 7.12502
lthumb 10.5063 42.7963
rfemur -33.4384 1.46392 14.089
rtibia 63.3338
rfoot -21.0312 0.96133
rtoes -9.64552
lfemur 24.2402 10.9185 -25.9694
ltibia 3.18055e-014
lfoot -14.6645 17.1955
ltoes -18.4373
2051
root 46.4082 16.1135 -5.71618 -32.8182 -80.438 -330.017
lowerback 8.10785 -2.94806 -9.11362
upperback -3.63013 -5.10622 -0.900397
thorax -7.73415 -2.06605 4.86388
lowerneck -1.71299 -0.984937 -2.78712
upperneck -6.374 -1.03762 9.15035
head -1.67136 -0.683409 3.48226
rclavicle -4.00303e-014 -1.18277e-014
rhumerus -19.3666 27.4658 -77.6645
rradius 129.805
rwrist -38.3385
rhand -41.6562 25.7832
rfingers 7.12502
rthumb -14.564 -3.68553
lclavicle -4.00303e-014 -1.18277e-014
lhumerus -45.9097 -73.1207 126.788
lradius 91.1431
lwrist 35.5602
lhand -15.5325 13.0882
lfingers 7.12502
lthumb 10.6511 42.7983
rfemur -31.2699 2.31246 14.6934
rtibia 60.2815
rfoot -21.2167 1.19507
rtoes -7.66047
lfemur 24.7934 10.9479 -25.4997
ltibia -1.59028e-014
lfoot -14.0143 17.5515
ltoes -19.7042
2052
root 46.2895 16.0997 -5.73532 -31.6813 -80.7268 -331.283
lowerback 7.94788 -2.8876 -8.73875
upperback -3.60727 -4.95819 -0.856204
thorax -7.65953 -2.01614 4.67315
lowerneck -1.64173 -1.01014 -2.80174
upperneck -6.29784 -1.07375 9.15921
head -1.65678 -0.70005 3.48781
rclavicle 1.81018e-014 -1.2921e-015
rhumerus -19.2306 27.4445 -77.5906
rradius 129.85
rwrist -38.3486
rhand -41.6849 25.6987
rfingers 7.12502
rthumb -14.5916 -3.76799
lclavicle 1.81018e-014 -1.2921e-015
lhumerus -45.9938 -73.0938 126.832
lradius 91.146
lwrist 35.7658
lhand -15.3564 13.1111
lfingers 7.12502
lthumb 10.821 42.8123
rfemur -29.1147 3.11509 15.4327
rtibia 57.4575
rfoot -21.6508 1.12068
rtoes -4.88256
lfemur 25.362 10.9993 -24.9654
ltibia 3.49861e-014
lfoot -13.1717 17.9463
ltoes -21.0003
2053
root 46.1687 16.0927 -5.75656 -30.3983 -81.0459 -332.708
lowerback 7.80643 -2.81478 -8.33128
upperback -3.58706 -4.79364 -0.811169
thorax -7.60164 -1.95839 4.46492
lowerneck -1.55568 -1.04014 -2.82839
upperneck -6.22676 -1.11553 9.18262
head -1.64611 -0.719981 3.50109
rclavicle 4.38817e-014 1.55052e-014
rhumerus -19.1085 27.4285 -77.5516
rradius 129.867
rwrist -38.3302
rhand -41.7198 25.6273
rfingers 7.12502
rthumb -14.6252 -3.83694
lclavicle 4.38817e-014 1.55052e-014
lhumerus -46.0358 -73.0345 126.814
lradius 91.1475
lwrist 36.0031
lhand -15.1527 13.1364
lfingers 7.12502
lthumb 11.0174 42.8273
rfemur -27.0078 3.88736 16.2646
rtibia 54.9207
rfoot -22.3296 0.714619
rtoes -1.53742
lfemur 20.6337 11.2235 -24.3532
ltibia 9.72784
lfoot -16.6835 17.8466
ltoes -22.3387
2054
root 46.0467 16.0955 -5.78067 -29.0174 -81.3897 -334.232
lowerback 7.69086 -2.72769 -7.91348
upperback -3.57305 -4.6136 -0.767805
thorax -7.56669 -1.892 4.24945
lowerneck -1.45226 -1.07722 -2.86025
upperneck -6.16936 -1.1658 9.21907
head -1.64242 -0.745066 3.52048
rclavicle -3.87009e-014 9.34288e-015
rhumerus -19.0149 27.4188 -77.5637
rradius 129.845
rwrist -38.2689
rhand -41.7674 25.6054
rfingers 7.12502
rthumb -14.6711 -3.85555
lclavicle -3.87009e-014 9.34288e-015
lhumerus -46.0509 -72.9463 126.75
lradius 91.1315
lwrist 36.2224
lhand -14.9476 13.1815
lfingers 7.12502
lthumb 11.2153 42.8617
rfemur -25.0233 4.69166 17.1457
rtibia 52.7261
rfoot -23.1773 0.0918006
rtoes 2.02223
lfemur 18.3967 11.3951 -23.666
ltibia 14.8434
lfoot -17.6399 17.9856
ltoes -23.6471
2055
root 45.9249 16.1107 -5.80864 -27.5255 -81.7576 -335.867
lowerback 7.6244 -2.62396 -7.49893
upperback -3.56655 -4.41798 -0.72403
thorax -7.56814 -1.81564 4.03778
lowerneck -1.34448 -1.12322 -2.89793
upperneck -6.13054 -1.22683 9.27179
head -1.6448 -0.776428 3.5472
rclavicle -1.50828e-014 -1.21259e-014
rhumerus -18.9513 27.4071 -77.6485
rradius 129.781
rwrist -38.15
rhand -41.8193 25.6139
rfingers 7.12502
rthumb -14.7211 -3.84339
lclavicle -1.50828e-014 -1.21259e-014
lhumerus -46.0823 -72.8403 126.692
lradius 91.0795
lwrist 36.3518
lhand -14.8353 13.2283
lfingers 7.12502
lthumb 11.3236 42.9026
rfemur -23.2322 5.59533 18.0507
rtibia 50.8925
rfoot -23.9779 -0.804877
rtoes 5.24169
lfemur 16.3645 12.0529 -22.7353
ltibia 19.5547
lfoot -17.7507 17.6963
ltoes -25.1007
2056
root 45.8047 16.1376 -5.84085 -26.0811 -82.1371 -337.47
lowerback 7.63185 -2.50297 -7.12247
upperback -3.55219 -4.21049 -0.685037
thorax -7.60131 -1.73027 3.84474
lowerneck -1.26603 -1.17676 -2.9403
upperneck -6.10529 -1.29725 9.34103
head -1.64562 -0.812677 3.58057
rclavicle 1.88597e-014 1.0138e-014
rhumerus -18.9173 27.3953 -77.8156
rradius 129.675
rwrist -37.973
rhand -41.882 25.6368
rfingers 7.12502
rthumb -14.7815 -3.81605
lclavicle 1.88597e-014 1.0138e-014
lhumerus -46.0984 -72.7156 126.612
lradius 90.9796
lwrist 36.3782
lhand -14.8165 13.2792
lfingers 7.12502
lthumb 11.3417 42.9525
rfemur -21.654 6.61258 18.9354
rtibia 49.3989
rfoot -24.5585 -1.83239
rtoes 8.04522
lfemur 14.2323 12.8207 -21.7203
ltibia 24.3834
lfoot -17.1467 17.3466
ltoes -26.5839
2057
root 45.6884 16.1736 -5.87755 -24.4763 -82.5222 -339.267
lowerback 7.74206 -2.37385 -6.76715
upperback -3.51654 -4.00099 -0.640541
thorax -7.66761 -1.64147 3.67369
lowerneck -1.27322 -1.23578 -2.98532
upperneck -6.06837 -1.37606 9.42088
head -1.62656 -0.851449 3.61677
rclavicle 1.01132e-014 7.95139e-016
rhumerus -18.9062 27.3906 -78.0513
rradius 129.545
rwrist -37.7822
rhand -41.9649 25.6648
rfingers 7.12502
rthumb -14.8614 -3.78223
lclavicle 1.01132e-014 7.95139e-016
lhumerus -46.0764 -72.5782 126.494
lradius 90.8341
lwrist 36.3088
lhand -14.9124 13.3318
lfingers 7.12502
lthumb 11.2493 43.0102
rfemur -20.2726 7.69824 19.8218
rtibia 48.1666
rfoot -24.7674 -2.88753
rtoes 10.2023
lfemur 11.8626 13.6209 -20.6117
ltibia 29.5405
lfoot -15.7753 16.9681
ltoes -27.9007
2058
root 45.5785 16.214 -5.91838 -22.3281 -82.9016 -341.636
lowerback 7.96212 -2.24938 -6.39435
upperback -3.46001 -3.80058 -0.578682
thorax -7.77196 -1.55614 3.51673
lowerneck -1.38876 -1.29641 -3.03652
upperneck -6.00305 -1.45898 9.50852
head -1.57832 -0.889471 3.65474
rclavicle 2.26615e-014 -1.31198e-014
rhumerus -18.9173 27.3975 -78.3315
rradius 129.42
rwrist -37.6293
rhand -42.0572 25.6349
rfingers 7.12502
rthumb -14.9502 -3.80553
lclavicle 2.26615e-014 -1.31198e-014
lhumerus -46.0464 -72.4266 126.363
lradius 90.6675
lwrist 36.181
lhand -15.1089 13.3757
lfingers 7.12502
lthumb 11.0598 43.0643
rfemur -19.0522 8.75151 20.7491
rtibia 47.0841
rfoot -24.5695 -3.94814
rtoes 11.9002
lfemur 9.16369 14.3642 -19.4051
ltibia 35.1009
lfoot -13.5545 16.591
ltoes -28.611
2059
root 45.4759 16.2541 -5.96114 -19.149 -83.2449 -345.06
lowerback 8.27605 -2.14863 -5.94732
upperback -3.37786 -3.6244 -0.490149
thorax -7.90103 -1.4851 3.35242
lowerneck -1.61742 -1.35597 -3.083
upperneck -5.91302 -1.54271 9.58467
head -1.50164 -0.924848 3.68555
rclavicle 2.76311e-014 1.70955e-014
rhumerus -18.9283 27.4243 -78.6039
rradius 129.343
rwrist -37.5814
rhand -42.1658 25.5745
rfingers 7.12502
rthumb -15.0549 -3.85806
lclavicle 2.76311e-014 1.70955e-014
lhumerus -45.9945 -72.2752 126.204
lradius 90.5168
lwrist 36.0543
lhand -15.3753 13.4044
lfingers 7.12502
lthumb 10.8028 43.1066
rfemur -17.9067 9.63933 21.7506
rtibia 46.0301
rfoot -24.1408 -4.86522
rtoes 13.5126
lfemur 6.10902 14.9665 -18.1049
ltibia 41.037
lfoot -10.4404 16.1928
ltoes -28.1623
2060
root 45.3806 16.2912 -6.00353 -14.348 -83.506 -350.096
lowerback 8.64456 -2.08693 -5.35878
upperback -3.28773 -3.48042 -0.364966
thorax -8.05339 -1.4355 3.15313
lowerneck -1.9071 -1.4148 -3.11801
upperneck -5.82502 -1.62628 9.63385
head -1.41484 -0.958619 3.70372
rclavicle 3.99557e-014 1.78906e-015
rhumerus -18.9325 27.4704 -78.8155
rradius 129.349
rwrist -37.6681
rhand -42.2747 25.4955
rfingers 7.12502
rthumb -15.1598 -3.92922
lclavicle 3.99557e-014 1.78906e-015
lhumerus -45.9773 -72.1481 126.076
lradius 90.4235
lwrist 35.9589
lhand -15.6597 13.4041
lfingers 7.12502
lthumb 10.5285 43.1204
rfemur -16.7784 10.2747 22.8606
rtibia 44.9028
rfoot -23.6754 -5.73167
rtoes 14.715
lfemur 2.67777 15.3765 -16.7124
ltibia 47.2557
lfoot -6.49921 15.7834
ltoes -26.2027
2061
root 45.2897 16.3257 -6.04264 -8.05498 -83.6182 -356.588
lowerback 9.00983 -2.07081 -4.62355
upperback -3.19821 -3.37205 -0.210398
thorax -8.20565 -1.41068 2.90623
lowerneck -2.17606 -1.47228 -3.14343
upperneck -5.79039 -1.70576 9.64995
head -1.34966 -0.991736 3.7096
rclavicle -1.00635e-014 4.96962e-015
rhumerus -18.9041 27.529 -78.9162
rradius 129.454
rwrist -37.8687
rhand -42.3656 25.4375
rfingers 7.12502
rthumb -15.2474 -3.98057
lclavicle -1.00635e-014 4.96962e-015
lhumerus -46.0029 -72.0724 125.992
lradius 90.4212
lwrist 35.9215
lhand -15.9088 13.3475
lfingers 7.12502
lthumb 10.2882 43.0758
rfemur -15.611 10.6129 24.0364
rtibia 43.6376
rfoot -23.2342 -6.49637
rtoes 15.4599
lfemur -1.07741 15.5965 -15.2834
ltibia 53.6242
lfoot -2.33488 15.2123
ltoes -23.0663
2062
root 45.2003 16.3595 -6.07637 -0.849978 -83.5305 -363.938
lowerback 9.32178 -2.09608 -3.7495
upperback -3.1175 -3.29227 -0.0352219
thorax -8.3392 -1.40792 2.60404
lowerneck -2.33882 -1.53352 -3.1573
upperneck -5.86645 -1.78477 9.62734
head -1.33969 -1.02928 3.70305
rclavicle 3.83406e-014 6.95746e-015
rhumerus -18.8269 27.5841 -78.8733
rradius 129.648
rwrist -38.1113
rhand -42.4217 25.4402
rfingers 7.12502
rthumb -15.3014 -3.97372
lclavicle 3.83406e-014 6.95746e-015
lhumerus -46.0502 -72.0771 125.951
lradius 90.5161
lwrist 35.9322
lhand -16.0584 13.2372
lfingers 7.12502
lthumb 10.1438 42.9726
rfemur -14.3262 10.6763 25.23
rtibia 42.0644
rfoot -22.7983 -7.02169
rtoes 15.8914
lfemur -5.0418 15.6502 -13.877
ltibia 59.9173
lfoot 1.4837 14.4332
ltoes -19.3028
